<?xml version="1.0" standalone="no"?>
<!DOCTYPE svg PUBLIC "-//W3C//DTD SVG 20010904//EN"
 "http://www.w3.org/TR/2001/REC-SVG-20010904/DTD/svg10.dtd">
<svg version="1.0" xmlns="http://www.w3.org/2000/svg"
 width="512.000000pt" height="512.000000pt" viewBox="0 0 512.000000 512.000000"
 preserveAspectRatio="xMidYMid meet">

<g transform="translate(0.000000,512.000000) scale(0.100000,-0.100000)"
fill="#000000" stroke="none">
<path d="M3616 4386 c-109 -66 -116 -217 -14 -299 90 -72 232 -32 274 78 46
122 -39 245 -171 245 -35 0 -62 -7 -89 -24z m130 -141 c8 -33 -12 -57 -45 -53
-18 2 -27 10 -29 26 -6 37 5 52 37 52 24 0 32 -5 37 -25z"/>
<path d="M1478 4370 c-159 -28 -245 -202 -172 -349 27 -53 85 -106 131 -117
l23 -6 0 -585 0 -585 -437 -614 c-241 -337 -448 -634 -461 -659 -28 -56 -33
-138 -13 -210 11 -37 29 -65 71 -107 87 -87 95 -88 517 -88 l354 0 25 26 c30
29 27 67 -8 97 -18 15 -52 17 -375 17 -386 0 -391 1 -432 58 -26 37 -35 74
-27 115 4 21 170 262 466 677 l460 645 0 603 0 602 240 0 240 0 0 -195 0 -195
-57 0 c-32 0 -63 -4 -69 -8 -19 -13 -34 -50 -27 -69 15 -42 34 -53 95 -53 l58
0 0 -59 0 -59 -60 -4 c-69 -5 -93 -22 -93 -67 0 -51 27 -71 95 -71 l58 0 0
-60 0 -60 -54 0 c-68 0 -99 -22 -99 -70 0 -48 31 -70 99 -70 l54 0 0 -79 0
-79 260 -365 261 -365 -3 -120 -3 -120 -270 378 c-149 210 -280 384 -293 389
-13 7 -95 11 -195 11 -138 0 -177 -3 -194 -15 -33 -23 -133 -170 -133 -195 0
-52 43 -85 90 -68 14 4 45 38 70 73 l45 65 126 0 126 0 307 -431 c169 -237
310 -437 313 -445 4 -12 -106 -14 -746 -14 -413 0 -751 2 -751 5 0 2 73 107
162 232 181 254 190 269 181 301 -8 34 -58 57 -92 42 -36 -15 -454 -603 -459
-646 -3 -24 2 -36 23 -53 l28 -21 833 0 834 0 0 -70 0 -70 -106 0 c-100 0
-139 -8 -156 -34 -14 -21 -8 -66 12 -86 18 -18 33 -20 134 -20 l113 0 7 -57
c9 -82 44 -151 105 -205 91 -82 49 -78 886 -78 655 0 747 2 789 16 64 22 147
100 177 166 l24 53 3 1111 2 1111 -21 26 -20 27 -448 0 c-421 0 -449 -1 -464
-18 -24 -26 -21 -75 4 -98 20 -18 44 -19 415 -22 l394 -3 0 -54 0 -55 -874 0
-874 0 -42 53 -42 52 78 6 c93 7 108 12 122 44 12 27 7 50 -16 78 -13 15 -36
17 -192 17 -159 0 -179 -2 -193 -18 -35 -39 -22 -70 83 -202 l100 -125 0 -334
c0 -197 -4 -331 -9 -325 -5 5 -90 123 -190 263 l-181 254 0 578 0 579 33 14
c146 61 210 286 81 286 -37 0 -57 -23 -69 -77 -9 -43 -47 -79 -93 -87 -63 -10
-634 -7 -674 4 -79 22 -104 111 -49 172 l29 33 317 5 c299 5 317 6 331 24 19
27 18 59 -5 87 l-19 24 -289 2 c-158 0 -309 -3 -335 -7z m2970 -1627 l-3 -88
-58 -5 c-63 -6 -87 -24 -87 -67 0 -41 33 -63 95 -63 l56 0 -3 -82 -3 -83 -110
-3 c-123 -3 -145 -13 -145 -67 0 -57 26 -70 151 -73 l109 -4 0 -73 0 -73 -57
-4 c-62 -5 -93 -30 -93 -73 0 -42 30 -65 93 -72 l57 -6 0 -72 0 -73 -57 -4
c-62 -5 -93 -30 -93 -73 0 -42 30 -65 93 -72 l57 -6 0 -72 0 -73 -57 -4 c-62
-5 -93 -30 -93 -73 0 -42 30 -65 93 -72 l57 -6 0 -72 0 -73 -57 -4 c-62 -5
-93 -30 -93 -73 0 -42 30 -65 92 -72 56 -6 58 -7 52 -32 -10 -44 -51 -97 -87
-114 -32 -15 -106 -17 -762 -17 -815 0 -772 -4 -823 73 l-27 41 -3 622 -3 623
592 3 591 3 19 24 c24 29 24 62 2 90 -18 21 -21 21 -608 24 l-590 2 -3 238 -2
237 855 0 856 0 -3 -87z"/>
<path d="M3155 2044 c-6 -1 -22 -5 -37 -8 -37 -8 -98 -63 -114 -103 -28 -66
-14 -145 34 -197 112 -119 314 -38 314 125 0 60 -35 126 -81 153 -32 18 -96
35 -116 30z m50 -178 c0 -36 -27 -56 -52 -40 -40 25 -20 77 26 72 21 -2 26 -8
26 -32z"/>
<path d="M3862 1784 c-53 -32 -82 -86 -82 -154 0 -57 15 -93 57 -132 114 -108
303 -26 303 131 0 71 -38 134 -102 167 -45 23 -126 18 -176 -12z m128 -129
c15 -18 10 -45 -12 -59 -33 -20 -69 20 -54 60 7 18 50 18 66 -1z"/>
<path d="M3402 1409 c-18 -5 -50 -27 -71 -48 -141 -141 12 -373 196 -296 48
20 71 41 94 87 41 80 11 188 -64 233 -50 28 -109 38 -155 24z m88 -154 c15
-18 10 -45 -12 -59 -33 -20 -69 20 -54 60 7 18 50 18 66 -1z"/>
<path d="M2907 3936 c-74 -27 -117 -90 -117 -170 0 -56 28 -116 67 -144 37
-27 106 -44 140 -36 125 29 186 150 132 262 -39 79 -138 119 -222 88z m88
-139 c13 -10 16 -21 12 -39 -8 -31 -24 -38 -54 -27 -28 10 -31 53 -5 68 22 14
25 13 47 -2z"/>
<path d="M3784 3782 c-18 -11 -34 -48 -34 -76 0 -23 -4 -26 -33 -26 -39 0 -77
-34 -77 -69 0 -32 43 -71 80 -71 26 0 30 -3 30 -29 0 -15 9 -40 21 -55 42 -53
119 -21 119 49 0 31 3 35 26 35 28 0 65 16 76 34 4 6 8 25 8 43 0 39 -30 63
-77 63 -31 0 -33 2 -33 33 0 47 -24 77 -63 77 -18 0 -37 -4 -43 -8z"/>
<path d="M3071 3194 c-26 -33 -27 -58 -2 -83 27 -27 71 -34 186 -29 87 3 99 5
116 27 25 30 24 66 -1 91 -18 18 -33 20 -149 20 -128 0 -130 0 -150 -26z"/>
<path d="M1789 1172 c-15 -13 -22 -30 -22 -52 0 -59 26 -70 167 -70 115 0 124
1 144 23 30 32 28 71 -4 96 -24 19 -40 21 -144 21 -100 0 -121 -3 -141 -18z"/>
</g>
</svg>
