<?xml version="1.0" standalone="no"?>
<!DOCTYPE svg PUBLIC "-//W3C//DTD SVG 20010904//EN"
 "http://www.w3.org/TR/2001/REC-SVG-20010904/DTD/svg10.dtd">
<svg version="1.0" xmlns="http://www.w3.org/2000/svg"
 width="512.000000pt" height="512.000000pt" viewBox="0 0 512.000000 512.000000"
 preserveAspectRatio="xMidYMid meet">

<g transform="translate(0.000000,512.000000) scale(0.100000,-0.100000)"
fill="#000000" stroke="none">
<path d="M1618 4899 c-17 -9 -18 -37 -18 -354 0 -330 1 -345 19 -355 25 -13
67 -13 92 0 18 10 19 23 19 165 l0 155 110 0 110 0 0 -155 c0 -142 1 -155 19
-165 27 -14 74 -13 94 3 16 11 17 42 15 357 l-3 345 -37 9 c-29 7 -42 6 -62
-8 -26 -16 -26 -18 -26 -151 l0 -135 -110 0 -110 0 0 134 c0 128 -1 136 -22
150 -26 18 -65 20 -90 5z"/>
<path d="M3935 4901 c-29 -12 -29 -13 -195 -273 l-148 -233 -439 3 c-407 3
-440 2 -472 -15 -29 -15 -68 -76 -255 -401 l-221 -382 -400 2 -400 3 -107 195
c-59 108 -118 204 -132 214 -65 49 -164 -5 -153 -83 2 -20 52 -123 111 -230
l106 -195 -81 -140 c-45 -78 -136 -236 -203 -353 l-121 -212 -377 -3 c-362 -3
-378 -4 -404 -24 -52 -38 -56 -103 -9 -150 l24 -24 383 0 384 0 193 -336 c106
-184 195 -343 197 -352 3 -10 -45 -89 -121 -197 -106 -153 -125 -186 -125
-218 0 -50 15 -76 53 -92 40 -17 80 -9 109 20 13 13 77 102 143 199 l120 175
406 1 406 0 194 -337 c107 -185 197 -341 201 -348 4 -6 -52 -105 -123 -220
-132 -215 -145 -247 -119 -296 27 -49 117 -61 154 -20 9 10 72 108 140 217
l123 199 403 0 404 0 219 -381 c164 -285 227 -386 249 -399 62 -36 143 11 143
83 0 31 -41 108 -218 415 -119 207 -217 379 -217 383 0 4 90 164 201 356 l201
348 240 0 c263 0 285 4 308 59 16 39 5 82 -26 112 -25 24 -28 24 -273 27
l-247 3 -201 349 -202 350 221 381 c166 288 220 389 220 414 0 26 -53 125
-216 408 -119 206 -216 379 -216 386 0 6 67 118 150 249 164 259 173 284 128
337 -25 28 -79 41 -113 26z m-144 -1060 c173 -300 197 -347 187 -365 -6 -12
-96 -168 -200 -348 l-190 -328 -402 0 -403 0 -202 350 -201 350 186 323 c102
177 192 332 200 345 l15 22 406 -2 405 -3 199 -344z m-1390 -786 c109 -187
198 -347 198 -355 0 -8 -88 -168 -197 -355 l-197 -340 -403 0 -403 0 -200 345
c-111 193 -196 351 -193 360 3 8 93 166 200 352 l196 338 401 -2 401 -3 197
-340z m1388 -804 l201 -349 -181 -314 c-99 -172 -192 -330 -205 -350 l-24 -38
-399 0 -398 0 -202 350 -202 350 202 350 202 350 403 0 402 0 201 -349z"/>
<path d="M884 4381 c-98 -42 -72 -192 34 -191 88 1 132 109 69 169 -27 24 -73
34 -103 22z"/>
<path d="M4342 3124 c-22 -15 -22 -15 -22 -353 0 -249 3 -340 12 -349 7 -7 30
-12 53 -12 23 0 46 5 53 12 8 8 12 59 12 165 l0 153 110 0 110 0 0 -155 c0
-142 1 -155 19 -165 28 -14 87 -12 100 4 8 9 11 112 9 357 l-3 343 -31 9 c-22
7 -40 5 -60 -5 l-29 -13 -3 -138 -3 -137 -109 0 -110 0 0 134 c0 128 -1 136
-22 150 -12 9 -32 16 -43 16 -11 0 -31 -7 -43 -16z"/>
<path d="M405 2301 c-84 -15 -145 -68 -166 -143 -7 -26 -9 -117 -7 -248 3
-206 3 -207 31 -248 42 -64 94 -87 197 -87 64 0 94 5 120 19 75 40 109 88 112
160 3 56 -14 76 -63 76 -42 0 -69 -26 -69 -67 0 -12 -11 -34 -24 -50 -46 -53
-147 -31 -167 36 -6 22 -9 107 -7 214 l3 179 28 24 c20 17 40 24 70 24 57 0
85 -22 98 -76 7 -26 20 -49 31 -55 23 -12 84 -4 94 13 12 20 6 94 -10 126 -39
76 -160 122 -271 103z"/>
<path d="M4985 1991 c-32 -14 -55 -46 -62 -84 -5 -31 -1 -40 25 -67 59 -59
156 -30 168 51 5 30 2 41 -22 68 -31 33 -76 46 -109 32z"/>
<path d="M779 1247 c-45 -35 -51 -101 -13 -146 21 -26 33 -31 67 -31 45 1 67
13 85 47 20 36 14 79 -14 112 -21 26 -33 31 -67 31 -23 0 -49 -6 -58 -13z"/>
<path d="M2169 381 c-38 -39 -40 -97 -5 -138 20 -23 32 -28 71 -28 39 0 51 5
71 28 55 64 11 167 -71 167 -27 0 -44 -8 -66 -29z"/>
</g>
</svg>
