<?xml version="1.0" standalone="no"?>
<!DOCTYPE svg PUBLIC "-//W3C//DTD SVG 20010904//EN"
 "http://www.w3.org/TR/2001/REC-SVG-20010904/DTD/svg10.dtd">
<svg version="1.0" xmlns="http://www.w3.org/2000/svg"
 width="512.000000pt" height="512.000000pt" viewBox="0 0 512.000000 512.000000"
 preserveAspectRatio="xMidYMid meet">

<g transform="translate(0.000000,512.000000) scale(0.100000,-0.100000)"
fill="#000000" stroke="none">
<path d="M311 5104 c-206 -55 -337 -254 -303 -460 56 -335 469 -465 701 -219
119 126 147 301 73 458 -82 176 -285 271 -471 221z m181 -170 c165 -56 213
-281 87 -401 -126 -119 -340 -65 -395 99 -63 189 119 367 308 302z"/>
<path d="M1813 5104 c-50 -18 -112 -75 -138 -129 -18 -36 -20 -65 -23 -277
l-3 -236 -157 -4 c-139 -3 -162 -6 -198 -25 -52 -28 -111 -95 -124 -142 -5
-20 -10 -138 -10 -263 l0 -228 80 0 80 0 0 210 c0 220 7 259 45 274 9 3 77 6
151 6 l134 0 0 -245 0 -245 85 0 85 0 0 245 0 245 410 0 410 0 0 -905 0 -905
85 0 85 0 0 905 0 905 134 0 c74 0 142 -3 151 -6 45 -18 45 -10 45 -934 l0
-870 80 0 80 0 0 893 c0 876 -1 893 -21 937 -25 56 -62 95 -114 123 -35 19
-60 22 -197 25 l-158 4 0 53 c0 38 6 60 21 79 l20 26 533 0 533 0 21 -23 c21
-22 22 -31 22 -245 l0 -222 86 0 85 0 -3 238 c-3 266 -7 282 -81 353 -72 70
-68 70 -678 67 -603 -3 -577 0 -648 -70 -50 -49 -72 -102 -78 -184 l-6 -74
-408 0 -409 0 0 223 c0 221 0 224 23 245 l23 22 1438 0 1437 0 24 -25 25 -24
0 -386 0 -385 80 0 80 0 0 400 c0 442 0 442 -63 509 -18 18 -54 44 -82 57
l-50 24 -1450 -1 c-1256 0 -1456 -3 -1492 -15z"/>
<path d="M680 4121 c-72 -22 -139 -81 -166 -147 -22 -52 -18 -141 10 -199 72
-156 276 -186 399 -60 96 99 83 276 -28 361 -59 45 -152 64 -215 45z m114
-182 c48 -38 28 -120 -34 -134 -59 -13 -110 46 -89 102 20 54 76 69 123 32z"/>
<path d="M3825 3935 c-25 -24 -25 -25 -25 -220 0 -195 0 -196 25 -220 20 -21
34 -25 79 -25 l56 0 2 -1532 3 -1533 27 -69 c65 -167 187 -277 355 -321 234
-61 484 75 581 318 16 39 17 162 22 1587 l5 1545 50 3 c61 3 89 16 104 49 7
15 11 95 11 209 0 183 0 185 -25 209 l-24 25 -611 0 -611 0 -24 -25z m1125
-215 l0 -80 -490 0 -490 0 0 80 0 80 490 0 490 0 0 -80z m-162 -747 l2 -493
-330 0 -330 0 0 495 0 495 328 -2 327 -3 3 -492z m-10 -1615 l-3 -953 -23 -47
c-32 -65 -94 -125 -160 -156 -83 -39 -194 -38 -274 1 -67 33 -121 90 -157 166
l-26 56 -3 943 -3 942 326 0 325 0 -2 -952z"/>
<path d="M4290 1815 l0 -85 85 0 85 0 0 85 0 85 -85 0 -85 0 0 -85z"/>
<path d="M4460 1485 l0 -85 85 0 85 0 0 85 0 85 -85 0 -85 0 0 -85z"/>
<path d="M4290 1155 l0 -85 85 0 85 0 0 85 0 85 -85 0 -85 0 0 -85z"/>
<path d="M4460 825 l0 -85 85 0 85 0 0 85 0 85 -85 0 -85 0 0 -85z"/>
<path d="M4290 495 l0 -85 85 0 85 0 0 85 0 85 -85 0 -85 0 0 -85z"/>
<path d="M1182 3607 c-19 -21 -22 -35 -24 -162 l-3 -140 -45 -3 c-111 -6 -120
-21 -120 -202 l0 -130 -80 0 -80 0 0 -80 0 -80 80 0 80 0 0 -197 0 -198 -476
-873 c-266 -488 -485 -900 -495 -934 -35 -112 -21 -286 32 -390 29 -58 100
-130 157 -161 108 -59 65 -57 1281 -57 985 0 1122 2 1178 16 59 15 71 14 160
-2 363 -65 721 118 884 451 64 132 83 211 83 355 0 200 -46 338 -167 503 -64
88 -138 153 -242 213 l-85 49 3 280 2 280 83 3 82 3 0 79 0 80 -495 0 -495 0
0 -80 0 -80 80 0 80 0 0 -285 0 -285 -47 -24 c-27 -14 -61 -34 -77 -45 l-30
-20 -253 465 -253 464 0 195 0 195 85 0 85 0 0 80 0 80 -85 0 -85 0 0 140 c0
136 -1 142 -25 165 -20 21 -34 25 -80 25 l-55 0 0 124 c0 128 -8 170 -38 192
-13 10 -83 13 -298 14 -279 0 -281 0 -302 -23z m407 -143 l61 -7 0 -73 0 -74
-165 0 -165 0 0 73 c0 41 3 77 7 80 8 9 181 9 262 1z m221 -409 l0 -85 -325 0
-325 0 0 85 0 85 325 0 325 0 0 -85z m2 -463 l3 -217 148 -271 c81 -149 147
-276 147 -283 0 -6 -10 -11 -23 -11 -34 0 -96 -37 -159 -96 -85 -78 -133 -77
-221 2 -75 68 -136 94 -222 94 -88 0 -138 -22 -216 -94 -81 -76 -138 -79 -208
-12 -60 56 -120 94 -161 101 -22 4 -40 11 -40 16 0 5 66 130 148 277 l147 267
3 223 3 222 324 0 324 0 3 -218z m1323 -527 l0 -80 -162 -3 -163 -2 0 85 0 85
163 -2 162 -3 0 -80z m-56 -251 l61 -7 0 -157 c0 -181 -2 -175 106 -227 140
-68 251 -177 314 -308 54 -113 57 -125 28 -125 -42 -1 -106 -38 -172 -99 -61
-57 -69 -61 -112 -61 -43 0 -51 4 -110 60 -83 77 -114 92 -202 98 -98 6 -148
-14 -234 -95 -63 -59 -70 -63 -114 -63 -42 0 -51 5 -112 61 -75 68 -101 84
-155 94 -24 5 -37 13 -37 23 0 30 79 179 124 234 58 71 151 142 242 184 103
47 104 49 104 236 l0 158 104 0 c56 0 131 -3 165 -6z m-2231 -173 c18 -6 56
-31 85 -57 130 -117 287 -130 407 -31 29 23 64 52 79 64 52 43 97 34 173 -32
89 -78 137 -99 223 -99 88 0 140 23 223 96 35 32 75 58 93 62 71 14 70 15 148
-129 l73 -135 -40 -54 c-39 -51 -97 -158 -120 -221 -49 -131 -61 -341 -27
-470 41 -158 124 -304 235 -409 l59 -56 -1057 2 c-1009 3 -1059 4 -1092 22
-50 26 -88 65 -113 111 -25 50 -35 174 -18 242 7 26 141 284 299 575 314 578
289 542 370 519z m1576 -880 c83 -77 116 -93 202 -99 91 -6 153 20 241 101 56
52 65 57 107 57 43 0 51 -5 110 -59 92 -85 115 -96 216 -96 103 0 133 13 224
96 75 69 106 76 106 27 -1 -66 -31 -175 -71 -258 -55 -110 -169 -227 -276
-283 -423 -220 -920 50 -966 526 -4 44 -3 47 19 47 16 0 47 -21 88 -59z"/>
<path d="M1765 1318 c-198 -36 -267 -295 -115 -432 122 -110 314 -72 393 79
30 56 30 164 0 221 -55 103 -160 153 -278 132z m105 -188 c43 -43 20 -125 -35
-130 -59 -6 -95 21 -95 72 0 67 84 104 130 58z"/>
<path d="M900 1155 l0 -85 90 0 90 0 0 85 0 85 -90 0 -90 0 0 -85z"/>
<path d="M1193 989 c-54 -10 -93 -31 -133 -71 -98 -98 -92 -273 13 -365 37
-32 118 -63 167 -63 57 0 128 30 173 73 176 172 22 472 -220 426z m98 -188
c16 -13 23 -29 23 -54 0 -59 -49 -96 -101 -76 -54 20 -69 76 -32 123 25 32 75
35 110 7z"/>
<path d="M474 806 c-58 -27 -120 -94 -134 -145 -27 -96 -3 -196 61 -260 64
-64 164 -88 260 -61 51 14 118 76 145 134 97 208 -124 429 -332 332z m158
-173 c25 -22 30 -60 14 -92 -25 -48 -82 -56 -121 -16 -73 72 31 177 107 108z"/>
<path d="M1730 585 l0 -85 -85 0 -85 0 0 -85 0 -85 90 0 90 0 0 80 0 80 75 0
75 0 0 -80 0 -80 90 0 90 0 0 85 0 85 -85 0 -85 0 0 85 0 85 -85 0 -85 0 0
-85z"/>
<path d="M263 3460 c-174 -36 -293 -220 -253 -391 57 -249 358 -343 542 -171
208 195 91 539 -192 565 -30 3 -74 2 -97 -3z m155 -187 c73 -54 93 -141 49
-217 -58 -102 -213 -102 -272 -1 -51 85 -19 190 70 231 40 19 119 12 153 -13z"/>
</g>
</svg>
