<?xml version="1.0" standalone="no"?>
<!DOCTYPE svg PUBLIC "-//W3C//DTD SVG 20010904//EN"
 "http://www.w3.org/TR/2001/REC-SVG-20010904/DTD/svg10.dtd">
<svg version="1.0" xmlns="http://www.w3.org/2000/svg"
 width="512.000000pt" height="512.000000pt" viewBox="0 0 512.000000 512.000000"
 preserveAspectRatio="xMidYMid meet">

<g transform="translate(0.000000,512.000000) scale(0.100000,-0.100000)"
fill="#000000" stroke="none">
<path d="M2486 4735 c-57 -20 -114 -80 -131 -139 -19 -64 -22 -720 -3 -794 17
-67 87 -135 156 -152 42 -9 62 -9 104 0 69 17 139 85 156 152 19 75 16 730 -3
795 -34 115 -164 179 -279 138z m124 -161 c13 -13 15 -68 15 -379 0 -404 1
-398 -65 -398 -65 0 -65 -4 -68 382 -2 220 1 358 7 375 18 44 74 55 111 20z"/>
<path d="M820 4044 c-110 -48 -161 -181 -111 -289 12 -26 114 -134 292 -311
253 -250 278 -272 322 -283 140 -34 270 66 270 209 0 36 -7 69 -21 95 -29 57
-537 560 -584 580 -47 19 -123 19 -168 -1z m362 -381 c137 -137 251 -258 254
-270 14 -56 -31 -102 -81 -83 -11 5 -131 120 -267 257 -217 219 -248 254 -248
281 0 21 7 36 22 46 50 35 59 29 320 -231z"/>
<path d="M4130 4044 c-46 -19 -554 -525 -582 -579 -14 -26 -21 -59 -21 -95 0
-143 130 -243 270 -209 44 11 69 32 321 283 151 149 282 288 293 308 39 75 17
190 -47 250 -60 56 -160 74 -234 42z m128 -150 c15 -10 22 -25 22 -47 0 -29
-27 -59 -252 -283 -139 -138 -261 -254 -271 -257 -27 -10 -65 13 -76 44 -14
40 7 64 276 332 241 239 251 246 301 211z"/>
<path d="M2365 3295 c-132 -21 -203 -43 -360 -110 -115 -49 -277 -167 -385
-281 -163 -171 -277 -387 -331 -632 -22 -93 -22 -122 -26 -779 l-4 -683 -64 0
c-141 0 -230 -42 -267 -128 -41 -92 -18 -198 57 -260 55 -45 94 -52 297 -52
172 0 187 1 212 21 36 28 36 80 0 108 -25 20 -40 21 -215 21 l-188 0 -20 26
c-27 35 -26 59 4 89 l24 25 1461 0 1461 0 24 -25 c30 -30 31 -54 4 -89 l-20
-26 -1123 0 c-1121 0 -1123 0 -1150 -21 -36 -28 -36 -80 0 -108 27 -21 29 -21
1147 -21 810 0 1130 3 1158 11 123 37 185 179 131 301 -37 86 -126 128 -267
128 l-64 0 -3 344 c-3 322 -4 345 -22 365 -25 27 -79 28 -106 1 -19 -19 -20
-33 -20 -365 l0 -345 -1151 0 -1151 0 5 668 c4 636 5 671 25 763 63 282 213
518 437 688 88 67 265 154 375 185 315 89 671 34 942 -147 258 -171 442 -453
498 -762 6 -33 13 -142 17 -243 6 -179 7 -183 31 -203 28 -22 41 -23 76 -8 43
20 50 54 43 242 -6 187 -28 324 -73 449 -103 287 -306 533 -569 690 -60 36
-89 50 -200 94 -184 75 -443 102 -650 69z"/>
<path d="M162 2398 c-30 -6 -58 -24 -92 -56 -93 -91 -93 -218 0 -309 61 -60
85 -63 477 -63 238 0 369 4 401 12 64 16 134 86 151 151 25 103 -21 201 -119
253 -32 17 -65 19 -405 21 -217 1 -388 -3 -413 -9z m746 -149 c56 -19 61 -99
7 -119 -35 -13 -685 -13 -719 0 -55 21 -57 98 -4 120 33 13 678 13 716 -1z"/>
<path d="M4185 2401 c-122 -30 -190 -140 -164 -263 15 -69 83 -139 151 -156
32 -8 163 -12 401 -12 392 0 416 3 477 63 93 90 93 218 0 308 -37 36 -59 49
-99 58 -58 12 -716 14 -766 2z m766 -170 c10 -13 19 -31 19 -41 0 -10 -9 -28
-19 -41 l-19 -24 -349 -3 c-221 -2 -360 1 -377 7 -52 20 -51 100 2 120 17 6
163 9 375 8 l349 -2 19 -24z"/>
</g>
</svg>
