<?xml version="1.0" standalone="no"?>
<!DOCTYPE svg PUBLIC "-//W3C//DTD SVG 20010904//EN"
 "http://www.w3.org/TR/2001/REC-SVG-20010904/DTD/svg10.dtd">
<svg version="1.0" xmlns="http://www.w3.org/2000/svg"
 width="512.000000pt" height="512.000000pt" viewBox="0 0 512.000000 512.000000"
 preserveAspectRatio="xMidYMid meet">

<g transform="translate(0.000000,512.000000) scale(0.100000,-0.100000)"
fill="#000000" stroke="none">
<path d="M81 4792 c-19 -9 -44 -30 -55 -45 -21 -28 -21 -40 -24 -620 -2 -549
-1 -595 15 -626 36 -70 53 -75 261 -81 l187 -5 5 -138 c6 -170 4 -167 137
-167 l93 0 0 -80 0 -80 -117 0 c-65 0 -135 -5 -157 -9 -51 -12 -95 -56 -109
-108 l-11 -43 -129 0 c-123 0 -129 -1 -152 -25 l-25 -24 0 -256 c0 -148 4
-264 10 -275 16 -29 66 -40 186 -40 l114 0 0 -560 c0 -546 1 -562 21 -601 29
-59 79 -79 197 -79 l92 0 0 -80 0 -80 -130 0 c-126 0 -132 -1 -155 -25 -25
-24 -25 -26 -25 -205 0 -179 0 -181 25 -205 l24 -25 808 0 c883 0 841 -3 863
56 9 23 14 24 95 24 70 0 85 -3 85 -15 0 -9 11 -27 25 -40 l24 -25 1096 0
1096 0 24 25 c25 24 25 26 25 205 0 247 19 230 -260 230 l-210 0 0 80 0 80
328 0 c256 0 341 4 391 15 174 41 310 176 356 352 22 85 22 1201 0 1286 -42
162 -159 287 -318 340 -58 19 -89 21 -484 25 l-423 4 0 125 c0 124 0 125 -29
154 l-29 29 -281 0 -280 0 -3 368 c-3 354 -4 369 -26 424 -43 107 -113 176
-223 221 -51 20 -74 21 -371 25 l-318 4 0 78 c0 73 -2 80 -26 99 -24 19 -40
21 -155 21 l-129 0 0 104 c0 90 -3 107 -23 137 -42 64 -66 69 -305 69 -213 0
-213 0 -237 -25 -32 -31 -33 -74 -2 -103 22 -21 32 -22 220 -22 l197 0 0 -545
0 -545 -855 0 -855 0 0 545 0 545 524 0 c493 0 525 1 546 18 33 26 30 80 -5
110 l-26 22 -537 0 c-491 0 -540 -2 -571 -18z m2891 -666 c47 -23 91 -68 115
-115 16 -32 18 -73 21 -393 l3 -357 -290 -3 c-362 -4 -334 10 -339 -177 l-4
-128 -96 -5 c-136 -7 -179 -32 -203 -120 l-10 -38 -79 0 c-79 0 -80 0 -80 25
0 38 -25 80 -62 107 -33 23 -37 23 -336 26 l-303 3 3 77 3 77 97 3 c91 3 98 4
118 29 18 23 20 40 20 154 l0 129 176 0 c278 0 284 6 284 279 l0 181 129 0
c115 0 131 2 155 21 25 20 26 24 26 128 0 59 3 111 7 115 4 4 143 6 308 4 268
-3 304 -5 337 -22z m-1112 -2186 l0 -860 -80 0 -80 0 0 853 c0 470 3 857 7
860 3 4 39 7 80 7 l73 0 0 -860z m-310 0 l0 -850 -540 0 -540 0 0 850 0 850
540 0 540 0 0 -850z m2800 666 c0 -163 2 -186 18 -206 26 -33 80 -30 110 5 21
25 22 34 22 207 l0 180 123 -4 c113 -3 126 -6 175 -33 62 -34 101 -75 140
-148 l27 -52 0 -615 0 -615 -28 -57 c-34 -69 -110 -140 -175 -163 -27 -10 -91
-19 -154 -22 l-108 -6 0 536 c0 495 -1 536 -17 556 -27 32 -73 37 -106 11
l-27 -21 0 -535 0 -534 -1010 0 -1010 0 0 850 0 850 1010 0 1010 0 0 -184z
m-2176 -1532 c3 -9 6 -24 6 -34 0 -27 49 -80 87 -96 23 -10 85 -14 223 -14
l190 0 0 -80 0 -80 -645 0 -645 0 0 80 0 80 250 0 c273 0 298 4 339 55 12 16
24 40 27 54 3 14 7 32 10 39 2 8 27 12 78 12 58 0 75 -3 80 -16z m-934 -224
l0 -80 -235 0 -235 0 0 80 0 80 235 0 235 0 0 -80z m2640 0 l0 -80 -525 0
-525 0 0 80 0 80 525 0 525 0 0 -80z"/>
<path d="M646 2619 c-37 -29 -37 -89 0 -118 15 -12 37 -21 49 -21 12 0 34 9
49 21 20 16 26 29 26 59 0 30 -6 43 -26 59 -15 12 -37 21 -49 21 -12 0 -34 -9
-49 -21z"/>
<path d="M1283 2630 c-43 -17 -57 -81 -25 -119 28 -34 74 -37 107 -9 38 34 39
82 1 115 -29 24 -47 27 -83 13z"/>
<path d="M663 1390 c-47 -19 -58 -92 -20 -128 48 -45 127 -11 127 54 0 32 -28
74 -49 74 -5 0 -15 2 -23 4 -7 3 -23 1 -35 -4z"/>
<path d="M1300 1393 c-59 -21 -77 -86 -35 -128 48 -49 128 -14 128 55 0 47
-52 87 -93 73z"/>
<path d="M2505 2616 c-33 -33 -33 -79 0 -112 l24 -24 812 2 811 3 19 24 c10
13 19 36 19 51 0 15 -9 38 -19 51 l-19 24 -811 3 -812 2 -24 -24z"/>
<path d="M2523 2320 c-47 -19 -57 -87 -18 -125 l24 -25 806 0 806 0 24 25 c40
39 32 96 -16 120 -24 13 -143 15 -816 14 -433 0 -798 -4 -810 -9z"/>
<path d="M2525 2008 c-51 -27 -60 -84 -20 -123 l24 -25 806 0 806 0 24 25 c40
39 32 96 -16 120 -24 13 -144 15 -816 15 -551 -1 -794 -4 -808 -12z"/>
<path d="M2524 1698 c-47 -22 -56 -86 -19 -123 l24 -25 806 0 806 0 24 25 c40
39 32 96 -16 120 -24 13 -143 15 -816 14 -521 0 -795 -4 -809 -11z"/>
<path d="M2524 1388 c-47 -22 -56 -86 -19 -123 l24 -25 806 0 806 0 24 25 c43
42 28 103 -29 125 -38 14 -1583 13 -1612 -2z"/>
<path d="M385 4481 c-72 -44 -70 -31 -73 -360 -2 -280 -1 -298 17 -328 43 -69
37 -68 521 -68 420 0 436 1 470 20 19 12 43 36 55 55 19 33 20 51 20 317 0
270 -1 283 -21 310 -11 15 -36 38 -54 51 -33 22 -33 22 -469 22 -407 0 -438
-1 -466 -19z m855 -366 l0 -235 -390 0 -390 0 0 235 0 235 390 0 390 0 0 -235z"/>
<path d="M645 4165 c-30 -30 -32 -64 -4 -99 20 -25 24 -26 125 -26 58 0 114 5
125 11 48 25 44 105 -7 128 -14 6 -68 11 -120 11 -87 0 -97 -2 -119 -25z"/>
<path d="M1575 4475 c-30 -30 -32 -64 -4 -99 36 -46 119 -28 133 29 7 29 -15
79 -39 89 -33 12 -66 5 -90 -19z"/>
<path d="M1575 4165 c-49 -48 -16 -125 54 -125 78 0 105 89 42 137 -26 20 -70
15 -96 -12z"/>
</g>
</svg>
