<?xml version="1.0" standalone="no"?>
<!DOCTYPE svg PUBLIC "-//W3C//DTD SVG 20010904//EN"
 "http://www.w3.org/TR/2001/REC-SVG-20010904/DTD/svg10.dtd">
<svg version="1.0" xmlns="http://www.w3.org/2000/svg"
 width="200.000000pt" height="200.000000pt" viewBox="0 0 200.000000 200.000000"
 preserveAspectRatio="xMidYMid meet">

<g transform="translate(0.000000,200.000000) scale(0.100000,-0.100000)"
fill="#000000" stroke="none">
<path d="M694 1886 c-3 -8 -4 -23 -2 -33 3 -17 21 -18 283 -18 l280 0 0 30 0
30 -278 3 c-236 2 -278 0 -283 -12z"/>
<path d="M550 1641 c0 -105 2 -191 4 -191 2 0 18 29 35 65 41 89 90 160 155
227 31 31 56 58 56 61 0 2 -37 7 -82 11 -46 4 -102 9 -125 12 l-43 6 0 -191z"/>
<path d="M1305 1818 c-55 -6 -102 -12 -104 -14 -3 -2 14 -20 37 -40 62 -53
128 -144 172 -237 l39 -82 1 193 0 192 -22 -1 c-13 -1 -68 -6 -123 -11z"/>
<path d="M458 1813 l-28 -4 0 -179 0 -178 33 -7 c17 -4 40 -9 50 -11 16 -5 17
9 17 190 l0 196 -22 -1 c-13 -1 -35 -4 -50 -6z"/>
<path d="M1470 1626 l0 -193 43 8 c23 4 45 8 50 9 4 0 7 80 7 179 l0 178 -37
7 c-21 3 -44 6 -50 6 -10 0 -13 -45 -13 -194z"/>
<path d="M810 1773 c-91 -74 -200 -233 -232 -335 -9 -31 -15 -37 -32 -33 -12
2 -47 9 -78 15 l-58 11 0 86 0 86 -24 -22 c-38 -36 -87 -136 -89 -183 l-2 -41
75 -23 c243 -76 555 -113 788 -94 190 15 372 56 505 113 48 20 49 21 42 56 -8
43 -47 118 -86 163 l-28 33 -1 -87 0 -87 -57 -11 c-32 -6 -68 -13 -79 -15 -17
-4 -23 1 -28 23 -4 15 -27 68 -51 117 -50 101 -126 193 -194 237 -44 27 -48
28 -185 28 l-141 0 -45 -37z"/>
<path d="M1585 1289 c-338 -116 -738 -119 -1151 -9 -61 16 -118 32 -127 36
-15 5 -17 -4 -17 -80 0 -102 -15 -90 185 -141 206 -52 343 -69 560 -69 249 1
422 31 612 107 l58 23 3 87 c1 48 -1 86 -5 86 -4 -1 -57 -19 -118 -40z"/>
<path d="M1680 1110 c-29 -19 -198 -71 -296 -91 -128 -26 -435 -37 -585 -20
-158 18 -396 70 -493 107 -14 5 -16 -5 -16 -85 l0 -90 84 -26 c229 -70 461
-100 714 -92 224 6 372 35 570 109 l52 19 0 90 c0 90 -3 97 -30 79z"/>
<path d="M1640 879 c-61 -28 -248 -75 -356 -91 -130 -19 -423 -16 -569 6 -98
15 -296 60 -402 92 -23 6 -23 5 -23 -80 0 -102 -15 -90 185 -141 192 -49 344
-68 535 -68 238 0 438 34 620 103 l80 31 0 85 c0 94 0 94 -70 63z"/>
<path d="M1631 664 c-226 -87 -558 -125 -836 -94 -160 18 -390 68 -488 106
-16 6 -18 0 -15 -81 l3 -88 55 -19 c94 -33 289 -77 409 -94 159 -22 465 -15
602 15 103 22 223 59 301 93 l48 20 0 84 c0 46 -3 84 -7 83 -5 0 -37 -12 -72
-25z"/>
<path d="M1635 454 c-220 -90 -534 -131 -795 -105 -176 18 -410 69 -537 118
-10 4 -13 -18 -13 -105 0 -107 1 -111 26 -131 31 -24 175 -72 284 -95 228 -47
556 -47 795 0 109 21 257 70 289 95 25 20 26 23 26 135 0 63 -3 114 -7 113 -5
0 -35 -12 -68 -25z"/>
</g>
</svg>
