<?xml version="1.0" standalone="no"?>
<!DOCTYPE svg PUBLIC "-//W3C//DTD SVG 20010904//EN"
 "http://www.w3.org/TR/2001/REC-SVG-20010904/DTD/svg10.dtd">
<svg version="1.0" xmlns="http://www.w3.org/2000/svg"
 width="1920.000000pt" height="1920.000000pt" viewBox="0 0 1920.000000 1920.000000"
 preserveAspectRatio="xMidYMid meet">

<g transform="translate(0.000000,1920.000000) scale(0.100000,-0.100000)"
fill="#000000" stroke="none">
<path d="M6645 18093 c-16 -2 -74 -13 -129 -24 -504 -104 -928 -482 -1090
-970 -76 -230 -70 -54 -73 -1986 l-3 -1733 555 0 555 0 2 1668 3 1667 28 61
c36 77 104 145 182 181 l60 28 1895 0 1895 0 45 -22 c102 -48 175 -132 206
-232 l18 -61 559 0 560 0 -7 73 c-60 612 -459 1111 -1031 1290 -213 67 -21 61
-2215 63 -1092 1 -1998 -1 -2015 -3z"/>
<path d="M8453 16519 c-441 -32 -858 -280 -1110 -661 -103 -156 -169 -316
-215 -517 -22 -94 -22 -112 -25 -1028 l-4 -933 556 0 555 0 0 848 c0 912 0
915 53 1004 33 57 106 124 165 151 l47 22 1900 0 1900 0 56 -26 c79 -37 133
-90 171 -167 l33 -67 3 -882 2 -883 560 0 560 0 0 894 c0 578 -4 922 -11 973
-83 613 -538 1106 -1148 1244 -47 11 -135 22 -196 25 -159 8 -3742 10 -3852 3z"/>
<path d="M10800 14325 l0 -945 555 0 555 0 0 945 0 945 -555 0 -555 0 0 -945z"/>
<path d="M4679 13226 c-99 -26 -190 -103 -233 -195 -17 -37 -21 -65 -21 -141
0 -89 2 -99 34 -158 39 -71 78 -110 154 -150 l52 -27 2150 0 2150 0 55 26 c70
33 132 95 167 167 24 49 28 69 28 142 0 71 -4 94 -26 140 -49 106 -128 171
-238 196 -79 19 -4202 19 -4272 0z"/>
<path d="M10244 13226 c-105 -26 -184 -92 -233 -196 -22 -46 -26 -69 -26 -140
0 -73 4 -93 28 -142 35 -72 97 -134 167 -167 l55 -26 2150 0 2150 0 52 27 c76
40 115 79 154 150 32 59 34 69 34 158 0 84 -3 102 -28 151 -33 69 -99 132
-175 167 l-57 27 -2110 2 c-1657 1 -2121 -1 -2161 -11z"/>
<path d="M4632 12346 c-436 -197 -851 -458 -1247 -787 -135 -112 -519 -497
-636 -639 -563 -678 -944 -1455 -1124 -2292 -30 -139 -75 -410 -75 -450 l0
-28 5270 0 c5082 0 5270 1 5270 18 0 41 -62 388 -94 530 -165 718 -477 1389
-923 1988 -290 388 -676 774 -1068 1068 -321 241 -735 482 -1074 625 l-73 31
-2042 0 -2041 0 -143 -64z"/>
<path d="M10235 12365 c-205 -93 -488 -242 -483 -255 2 -4 55 -42 118 -85 298
-202 535 -399 806 -669 406 -407 711 -821 982 -1336 273 -517 478 -1155 559
-1739 l18 -131 2707 0 2708 0 0 28 c0 40 -45 311 -75 450 -88 405 -230 817
-414 1197 -541 1114 -1459 2009 -2584 2519 l-146 66 -2048 0 -2048 0 -100 -45z"/>
<path d="M12660 8003 c0 -1 22 -31 49 -67 88 -116 111 -208 111 -441 0 -223
-29 -326 -121 -437 -21 -26 -39 -49 -39 -52 0 -11 5171 -6 5243 4 132 19 248
106 304 225 27 58 28 67 31 242 3 148 1 192 -13 240 -32 112 -109 203 -214
252 l-56 26 -2648 5 c-1456 3 -2647 4 -2647 3z"/>
<path d="M1206 7975 c-111 -45 -192 -134 -227 -247 -19 -60 -21 -88 -17 -250
3 -176 4 -185 31 -243 58 -124 174 -207 315 -226 51 -6 1905 -9 5567 -7 l5490
3 58 23 c73 30 132 75 179 137 65 85 73 124 73 340 0 175 -2 194 -23 248 -44
108 -133 193 -241 232 -39 13 -639 15 -5595 15 l-5551 0 -59 -25z"/>
<path d="M1550 6833 c0 -51 56 -368 94 -530 308 -1323 1101 -2469 2227 -3219
l125 -84 2823 0 2822 0 122 82 c287 191 515 378 776 633 215 211 365 381 540
615 429 573 741 1241 907 1940 33 139 104 528 104 570 0 20 -16 20 -5270 22
l-5270 3 0 -32z"/>
<path d="M12226 6788 c-4 -40 -23 -157 -41 -259 -195 -1068 -695 -2037 -1455
-2823 -209 -216 -497 -463 -735 -633 l-96 -68 2652 -3 2652 -2 126 84 c747
497 1352 1171 1770 1967 187 357 354 805 446 1194 47 200 105 524 105 590 l0
25 -2709 0 -2708 0 -7 -72z"/>
<path d="M3996 2852 c-3 -5 -4 -186 -3 -403 l2 -394 2823 -3 2822 -2 0 405 0
405 -2819 0 c-1551 0 -2822 -4 -2825 -8z"/>
<path d="M9787 2853 c-4 -3 -7 -186 -7 -405 l0 -398 2713 2 2712 3 0 400 0
400 -2706 3 c-1488 1 -2709 -1 -2712 -5z"/>
<path d="M3357 1903 c-4 -3 -7 -186 -7 -405 l0 -398 3465 0 3465 0 0 405 0
405 -3458 0 c-1902 0 -3462 -3 -3465 -7z"/>
<path d="M10427 1903 c-4 -3 -7 -186 -7 -405 l0 -398 2715 0 2715 0 -2 403 -3
402 -2706 3 c-1488 1 -2709 -1 -2712 -5z"/>
</g>
</svg>
