<?xml version="1.0" standalone="no"?>
<!DOCTYPE svg PUBLIC "-//W3C//DTD SVG 20010904//EN"
 "http://www.w3.org/TR/2001/REC-SVG-20010904/DTD/svg10.dtd">
<svg version="1.0" xmlns="http://www.w3.org/2000/svg"
 width="512.000000pt" height="512.000000pt" viewBox="0 0 512.000000 512.000000"
 preserveAspectRatio="xMidYMid meet">

<g transform="translate(0.000000,512.000000) scale(0.100000,-0.100000)"
fill="#000000" stroke="none">
<path d="M1280 4570 l0 -90 275 0 275 0 0 90 0 90 -275 0 -275 0 0 -90z"/>
<path d="M1070 4289 c-429 -41 -817 -331 -979 -730 -84 -207 -94 -297 -88
-781 5 -416 7 -442 68 -617 80 -232 253 -453 464 -592 126 -84 298 -151 460
-181 102 -19 3028 -19 3130 0 494 91 857 439 971 932 25 109 33 807 10 955
-67 445 -365 805 -790 954 -80 28 -229 61 -277 61 -18 0 -19 -36 -19 -1249 l0
-1248 -26 -27 -27 -26 -492 0 -492 0 -27 26 -26 27 -2 1251 -3 1251 -885 1
c-487 1 -923 -2 -970 -7z m530 -739 c36 -19 210 -261 325 -449 158 -262 202
-420 159 -584 -47 -182 -191 -335 -369 -389 -96 -30 -224 -30 -320 0 -286 88
-452 395 -360 668 48 141 165 349 318 562 114 160 155 202 196 202 18 0 41 -5
51 -10z"/>
<path d="M1492 3236 c-190 -267 -302 -488 -302 -596 0 -125 88 -258 210 -318
49 -24 66 -27 155 -27 86 0 107 3 150 25 111 54 196 169 210 285 10 73 -14
158 -80 282 -50 98 -255 416 -275 428 -5 3 -36 -32 -68 -79z"/>
<path d="M3110 4205 l0 -95 365 0 365 0 0 95 0 95 -365 0 -365 0 0 -95z"/>
<path d="M3110 3840 l0 -90 365 0 365 0 0 90 0 90 -365 0 -365 0 0 -90z"/>
<path d="M3110 3475 l0 -95 365 0 365 0 0 95 0 95 -365 0 -365 0 0 -95z"/>
<path d="M3110 3110 l0 -90 365 0 365 0 0 90 0 90 -365 0 -365 0 0 -90z"/>
<path d="M3110 2740 l0 -90 365 0 365 0 0 90 0 90 -365 0 -365 0 0 -90z"/>
<path d="M3110 2380 l0 -90 365 0 365 0 0 90 0 90 -365 0 -365 0 0 -90z"/>
<path d="M3110 2010 l0 -90 365 0 365 0 0 90 0 90 -365 0 -365 0 0 -90z"/>
<path d="M1190 1005 l0 -185 90 0 90 0 0 185 0 185 -90 0 -90 0 0 -185z"/>
<path d="M3750 1005 l0 -185 90 0 90 0 0 185 0 185 -90 0 -90 0 0 -185z"/>
<path d="M0 550 l0 -90 2560 0 2560 0 0 90 0 90 -2560 0 -2560 0 0 -90z"/>
</g>
</svg>
