<?xml version="1.0" standalone="no"?>
<!DOCTYPE svg PUBLIC "-//W3C//DTD SVG 20010904//EN"
 "http://www.w3.org/TR/2001/REC-SVG-20010904/DTD/svg10.dtd">
<svg version="1.0" xmlns="http://www.w3.org/2000/svg"
 width="512.000000pt" height="512.000000pt" viewBox="0 0 512.000000 512.000000"
 preserveAspectRatio="xMidYMid meet">

<g transform="translate(0.000000,512.000000) scale(0.100000,-0.100000)"
fill="#000000" stroke="none">
<path d="M3132 4924 c-22 -15 -22 -19 -22 -256 l0 -241 -82 6 c-720 54 -1668
-36 -2143 -203 -184 -65 -325 -158 -337 -222 -31 -164 443 -347 1102 -428 333
-40 1004 -62 1315 -43 l130 8 3 50 3 50 -513 0 c-529 0 -720 8 -1068 46 -360
39 -607 91 -737 154 -91 45 -123 81 -123 140 0 107 134 178 446 239 238 46
511 76 869 96 208 12 985 14 1077 4 l58 -7 0 -53 c0 -29 -3 -55 -7 -57 -5 -2
-125 1 -268 5 -660 22 -1478 -38 -1853 -137 -93 -25 -202 -71 -202 -86 0 -15
95 -57 186 -83 225 -64 615 -112 1109 -136 229 -11 710 -13 898 -3 l127 6 0
79 c0 70 3 82 25 103 16 17 35 25 60 25 l35 0 0 458 c0 351 -3 462 -12 474
-20 25 -51 30 -76 12z"/>
<path d="M4080 4933 c-39 -14 -40 -22 -40 -495 l0 -458 40 0 c42 0 80 -26 80
-56 0 -17 7 -16 96 17 61 23 89 42 81 56 -6 9 -60 33 -164 74 -20 7 -23 16
-23 64 0 39 4 55 13 55 30 0 127 -34 191 -68 79 -41 106 -77 106 -139 0 -37
-6 -49 -39 -82 -37 -37 -156 -93 -232 -108 -25 -5 -29 -10 -29 -39 0 -19 3
-34 6 -34 3 0 52 18 108 40 165 65 264 132 293 198 12 29 12 37 -3 68 -31 66
-148 139 -319 200 l-90 32 -2 323 c-3 316 -3 324 -24 342 -22 18 -25 19 -49
10z"/>
<path d="M540 2326 l0 -1455 32 -36 c65 -75 289 -162 563 -219 425 -87 817
-121 1425 -121 630 1 1053 38 1470 131 237 53 452 138 515 204 l30 31 3 1460
c1 802 0 1459 -2 1459 -3 0 -27 -14 -55 -31 l-51 -32 0 -1390 0 -1390 -37 -35
c-114 -108 -456 -197 -938 -246 -318 -32 -500 -40 -940 -40 -550 0 -882 21
-1245 80 -370 59 -628 155 -659 246 -8 22 -11 444 -11 1404 l0 1374 -37 23
c-21 13 -44 27 -50 31 -10 6 -13 -287 -13 -1448z"/>
<path d="M4253 3626 l-93 -30 0 -1349 0 -1349 28 6 c45 11 152 64 157 78 3 7
4 612 3 1344 l-3 1330 -92 -30z"/>
<path d="M373 730 c-171 -59 -258 -115 -251 -161 8 -56 172 -135 403 -194 822
-211 2445 -253 3575 -94 523 74 900 197 900 295 0 43 -99 102 -267 158 l-83
28 -42 -35 c-204 -166 -725 -287 -1463 -339 -234 -16 -938 -16 -1170 0 -492
35 -881 99 -1150 187 -151 49 -231 87 -303 144 -28 23 -55 41 -59 40 -4 0 -45
-13 -90 -29z"/>
</g>
</svg>
