<?xml version="1.0" standalone="no"?>
<!DOCTYPE svg PUBLIC "-//W3C//DTD SVG 20010904//EN"
 "http://www.w3.org/TR/2001/REC-SVG-20010904/DTD/svg10.dtd">
<svg version="1.0" xmlns="http://www.w3.org/2000/svg"
 width="512.000000pt" height="512.000000pt" viewBox="0 0 512.000000 512.000000"
 preserveAspectRatio="xMidYMid meet">

<g transform="translate(0.000000,512.000000) scale(0.100000,-0.100000)"
fill="#000000" stroke="none">
<path d="M1817 4416 c-91 -33 -143 -100 -160 -205 l-10 -69 -216 -4 c-195 -4
-222 -6 -274 -27 -114 -45 -193 -129 -234 -250 -21 -64 -23 -66 -62 -73 -53
-9 -93 -31 -124 -67 -39 -46 -50 -93 -45 -187 4 -73 8 -90 34 -126 17 -24 49
-52 77 -66 l47 -25 0 -1243 0 -1244 -58 0 c-48 0 -62 -4 -80 -23 -28 -30 -28
-68 1 -95 l23 -22 1825 0 1826 0 21 23 c49 52 10 117 -71 117 l-46 0 -3 538
c-3 516 -4 539 -25 599 -53 158 -179 277 -338 319 -32 9 -110 14 -222 14
l-173 0 0 509 0 508 47 25 c28 14 60 42 77 66 26 36 30 53 34 126 5 94 -6 141
-45 187 -31 36 -71 58 -124 67 -39 7 -41 9 -62 73 -41 121 -120 205 -234 250
-52 21 -79 23 -274 27 l-217 4 -10 71 c-13 86 -47 139 -117 182 l-48 30 -351
2 c-276 2 -359 0 -389 -11z m707 -136 c33 -12 53 -45 62 -97 l7 -43 -402 0
-401 0 0 28 c0 39 31 95 60 109 31 16 634 18 674 3z m615 -291 c84 -18 168
-95 186 -171 l7 -28 -1142 0 -1142 0 7 28 c17 70 90 143 167 167 56 18 1837
21 1917 4z m393 -356 c27 -24 26 -125 -2 -153 -20 -20 -33 -20 -1342 -20
-1507 0 -1358 -10 -1358 93 0 108 -157 97 1358 97 1219 0 1327 -1 1344 -17z
m-2232 -1558 l0 -1245 -155 0 -155 0 0 1245 0 1245 155 0 155 0 0 -1245z m620
1130 l0 -115 -240 0 -240 0 0 115 0 115 240 0 240 0 0 -115z m1470 -1130 l0
-1245 -665 0 -665 0 0 1245 0 1245 665 0 665 0 0 -1245z m-1470 755 l0 -120
-240 0 -240 0 0 120 0 120 240 0 240 0 0 -120z m0 -380 l0 -120 -240 0 -240 0
0 120 0 120 240 0 240 0 0 -120z m0 -375 l0 -115 -240 0 -240 0 0 115 0 115
240 0 240 0 0 -115z m2005 64 c77 -29 154 -102 191 -181 l29 -63 3 -532 3
-533 -70 0 -70 0 -3 523 -3 524 -30 48 c-20 32 -45 56 -74 72 -41 21 -56 23
-198 23 l-153 0 0 70 0 70 160 0 c137 0 167 -3 215 -21z m-79 -273 c18 -14 19
-33 22 -525 l3 -511 -171 0 -170 0 0 525 0 525 148 0 c112 0 153 -3 168 -14z
m-1926 -166 l0 -120 -240 0 -240 0 0 120 0 120 240 0 240 0 0 -120z m0 -380
l0 -120 -240 0 -240 0 0 120 0 120 240 0 240 0 0 -120z m0 -375 l0 -115 -240
0 -240 0 0 115 0 115 240 0 240 0 0 -115z"/>
</g>
</svg>
